<?xml version="1.0" encoding="UTF-8" standalone="no"?>
<svg
   viewBox="0,0,256,256"
   width="500px"
   height="500px"
   fill-rule="nonzero"
   version="1.1"
   id="svg8"
   sodipodi:docname="icons8-git-500.svg"
   inkscape:export-filename="icons8-git-500.png"
   inkscape:export-xdpi="96"
   inkscape:export-ydpi="96"
   inkscape:version="1.2.2 (732a01da63, 2022-12-09)"
   xmlns:inkscape="http://www.inkscape.org/namespaces/inkscape"
   xmlns:sodipodi="http://sodipodi.sourceforge.net/DTD/sodipodi-0.dtd"
   xmlns:xlink="http://www.w3.org/1999/xlink"
   xmlns="http://www.w3.org/2000/svg"
   xmlns:svg="http://www.w3.org/2000/svg">
  <defs
     id="defs12">
    <linearGradient
       inkscape:collect="always"
       id="linearGradient1010">
      <stop
         style="stop-color:#f7f7f7;stop-opacity:1;"
         offset="0"
         id="stop1006" />
      <stop
         style="stop-color:#d9d9d9;stop-opacity:1;"
         offset="0.39665872"
         id="stop2466" />
      <stop
         style="stop-color:#9e9e9e;stop-opacity:1;"
         offset="1"
         id="stop1008" />
    </linearGradient>
    <linearGradient
       inkscape:collect="always"
       id="linearGradient236">
      <stop
         style="stop-color:#b2b2b2;stop-opacity:1;"
         offset="0"
         id="stop232" />
      <stop
         style="stop-color:#d9d9d9;stop-opacity:1;"
         offset="0.12178572"
         id="stop1738" />
      <stop
         style="stop-color:#c2c2cc;stop-opacity:1;"
         offset="1"
         id="stop234" />
    </linearGradient>
    <linearGradient
       inkscape:collect="always"
       xlink:href="#linearGradient236"
       id="linearGradient238"
       x1="206.39999"
       y1="158.72"
       x2="127.36"
       y2="259.84"
       gradientUnits="userSpaceOnUse" />
    <linearGradient
       inkscape:collect="always"
       xlink:href="#linearGradient1010"
       id="linearGradient1004"
       gradientUnits="userSpaceOnUse"
       x1="25.0625"
       y1="2.75"
       x2="25.0625"
       y2="52.875"
       spreadMethod="pad" />
    <filter
       inkscape:collect="always"
       style="color-interpolation-filters:sRGB"
       id="filter2522"
       x="-0.21820018"
       y="-1.091001"
       width="1.4364004"
       height="3.182002">
      <feGaussianBlur
         inkscape:collect="always"
         stdDeviation="5.6732049"
         id="feGaussianBlur2524" />
    </filter>
  </defs>
  <sodipodi:namedview
     id="namedview10"
     pagecolor="#ffffff"
     bordercolor="#000000"
     borderopacity="0.25"
     inkscape:showpageshadow="2"
     inkscape:pageopacity="0.0"
     inkscape:pagecheckerboard="0"
     inkscape:deskcolor="#d1d1d1"
     showgrid="false"
     inkscape:zoom="1.6"
     inkscape:cx="331.875"
     inkscape:cy="230.625"
     inkscape:window-width="1920"
     inkscape:window-height="998"
     inkscape:window-x="-11"
     inkscape:window-y="-11"
     inkscape:window-maximized="1"
     inkscape:current-layer="svg8" />
  <ellipse
     style="mix-blend-mode:normal;fill:#333333;stroke-width:0.512;filter:url(#filter2522)"
     id="path2520"
     cx="128.48"
     cy="249.44"
     rx="31.200001"
     ry="6.2399998" />
  <g
     fill="#d9d9d9"
     fill-rule="nonzero"
     stroke="none"
     stroke-width="1"
     stroke-linecap="butt"
     stroke-linejoin="miter"
     stroke-miterlimit="10"
     stroke-dasharray=""
     stroke-dashoffset="0"
     font-family="none"
     font-weight="none"
     font-size="none"
     text-anchor="none"
     style="mix-blend-mode:normal;fill-opacity:1;fill:url(#linearGradient238)"
     id="g6">
    <g
       transform="scale(5.12,5.12)"
       id="g4"
       style="fill-opacity:1;fill:url(#linearGradient238)">
      <path
         d="M46.79297,22.08984l-18.88281,-18.88281c-0.80078,-0.80469 -1.85547,-1.20703 -2.91016,-1.20703c-1.05469,0 -2.10937,0.40234 -2.91016,1.20703l-3.73437,3.73437l4.62109,4.62109c1.53516,-0.90234 3.53516,-0.70703 4.85156,0.60938c1.31641,1.31641 1.50781,3.31641 0.60547,4.84766l4.54297,4.54297c1.53516,-0.90234 3.53516,-0.70703 4.85156,0.60938c1.5625,1.5625 1.5625,4.09375 0,5.65625c-1.5625,1.5625 -4.09375,1.5625 -5.65625,0c-1.31641,-1.31641 -1.51172,-3.31641 -0.60937,-4.85156l-4.54297,-4.54297c-0.32422,0.19141 -0.66406,0.33203 -1.01953,0.42188v12.28516c1.72266,0.44531 3,1.99609 3,3.85938c0,2.21094 -1.78906,4 -4,4c-2.21094,0 -4,-1.78906 -4,-4c0,-1.86328 1.27734,-3.41406 3,-3.85937v-12.28516c-0.66797,-0.17187 -1.30469,-0.50391 -1.82812,-1.02734c-1.31641,-1.31641 -1.50781,-3.31641 -0.60547,-4.84766l-4.625,-4.625l-13.73437,13.73438c-1.60938,1.60547 -1.60938,4.21484 0,5.82031l18.88281,18.88281c0.80078,0.80469 1.85547,1.20703 2.91016,1.20703c1.05469,0 2.10938,-0.40234 2.91016,-1.20703l18.88281,-18.88281c1.60938,-1.60547 1.60938,-4.21484 0,-5.82031z"
         id="path2"
         style="fill-opacity:1;fill:url(#linearGradient1004)" />
    </g>
  </g>
</svg>
